<svg width="70" height="30" viewBox="0 0 70 30" fill="none" xmlns="http://www.w3.org/2000/svg">
<path d="M68.4132 16.3104C68.6559 16.3104 69.4446 16.3199 69.986 16.4391L70 8.14202C69.5426 8.07526 69.0759 8.03711 68.6186 8.03711C67.4705 8.03711 66.5184 8.23738 65.7951 8.6427C63.3029 10.0494 62.6915 11.375 62.3135 15.2423L62.3042 15.3472H61.3568L61.3708 8.29937L53.2782 8.28507L53.2362 29.1376L61.5201 29.1566L61.5341 22.6906C61.5434 18.6851 64.1149 16.3009 68.4132 16.3104Z" fill="#7352FF"/>
<path d="M50.7767 29.1279L50.8187 8.27542L40.3833 8.25635L40.3693 14.4697L42.5208 14.4744L42.4928 29.1088L50.7767 29.1279Z" fill="#7352FF"/>
<path d="M32.6595 18.7612L32.6501 22.9193C32.6501 23.6345 32.0808 24.2163 31.3807 24.2163C30.6807 24.2163 30.1113 23.6345 30.1113 22.9193L30.1253 14.4409L37.6065 14.4552L37.6205 8.26578L30.1393 8.25148L30.1486 3.56885L22.3781 6.91631L22.3501 21.6509C22.3408 26.6196 25.4957 29.4711 31.012 29.4854C36.4957 29.495 40.192 26.3621 40.1966 21.689L40.2013 18.7802L32.6595 18.7612Z" fill="#7352FF"/>
<path d="M51.2994 3.42108C51.3508 4.57505 50.5201 5.39523 49.5447 5.79101C48.5413 6.21063 47.4819 6.306 46.6511 6.32508C45.8251 6.306 44.7657 6.20587 43.7576 5.79101C42.7822 5.39523 41.9515 4.57505 42.0028 3.42108C41.9515 2.26712 42.7822 1.44694 43.7576 1.05116C44.761 0.631533 45.8204 0.536164 46.6511 0.51709C47.4772 0.536164 48.5366 0.636301 49.5447 1.05116C50.5201 1.44694 51.3508 2.26712 51.2994 3.42108Z" fill="#7352FF"/>
<path d="M13.4502 16.444L10.7387 15.8193C8.95126 15.3854 8.95126 14.1074 8.95126 14.1074C8.95126 12.138 10.8134 12.138 10.8134 12.138C11.8401 12.138 12.6755 13.0536 12.6755 14.1074H20.6514C20.4367 9.72042 16.8898 7.31235 10.6407 7.30281C6.85579 7.29327 3.89226 8.18498 2.07681 9.87301C0.905394 10.9602 0.280019 12.3955 0.280019 14.0216C0.280019 17.1402 2.10481 19.243 5.87573 20.0871L10.58 21.1409C10.58 21.1409 10.58 21.1409 10.5847 21.1409C11.4154 21.3459 12.4002 21.5462 12.4188 22.4284C12.4002 25.0415 8.71325 25.032 8.69458 22.4284L0 22.4141C0.00933396 26.9823 3.61224 29.5048 10.1553 29.5143C13.9076 29.5239 16.7451 28.656 18.5839 26.9441C19.788 25.8235 20.3807 24.4121 20.3807 22.6287C20.3807 19.4576 18.3786 17.5645 13.4502 16.444Z" fill="#7352FF"/>
</svg>
